<svg width="15" height="15" viewBox="0 0 15 15" fill="none" xmlns="http://www.w3.org/2000/svg">
<path fill-rule="evenodd" clip-rule="evenodd" d="M6.35869 12.0877C8.7187 11.9729 11.1458 12.2266 11.7779 12.6555C12.41 13.0829 11.0101 13.5239 8.64863 13.6387C6.28862 13.7535 3.86301 13.4998 3.23089 13.0708C2.59876 12.6419 3.99867 12.2024 6.35869 12.0877Z" fill="#FFCA59"/>
<path d="M11.9724 12.0186L12.6999 4.1062L7.53711 8.33766L11.9724 12.0186Z" fill="url(#paint0_linear_14920_1610)"/>
<path d="M3.0276 12.0186L2.30007 4.1062L7.46289 8.33766L3.0276 12.0186Z" fill="url(#paint1_linear_14920_1610)"/>
<path d="M3.04297 12.0046L5.30757 6.56909L7.50078 8.33727L3.04297 12.0046Z" fill="url(#paint2_linear_14920_1610)"/>
<path d="M11.959 12.0046L9.69438 6.56909L7.50117 8.33727L11.959 12.0046Z" fill="url(#paint3_linear_14920_1610)"/>
<path d="M5.31055 6.57139L7.50638 1.3335L9.69172 6.57382L7.49948 8.33892L5.31055 6.57139Z" fill="url(#paint4_linear_14920_1610)"/>
<defs>
<linearGradient id="paint0_linear_14920_1610" x1="12.6957" y1="4.14752" x2="9.78288" y2="10.2371" gradientUnits="userSpaceOnUse">
<stop stop-color="#FFCA59"/>
<stop offset="1" stop-color="#5F3C07"/>
</linearGradient>
<linearGradient id="paint1_linear_14920_1610" x1="2.30434" y1="4.14752" x2="5.21712" y2="10.2371" gradientUnits="userSpaceOnUse">
<stop stop-color="#FFCA59"/>
<stop offset="1" stop-color="#5F3C07"/>
</linearGradient>
<linearGradient id="paint2_linear_14920_1610" x1="6.71715" y1="7.14655" x2="5.50657" y2="10.7783" gradientUnits="userSpaceOnUse">
<stop stop-color="#FFCA59"/>
<stop offset="1" stop-color="#5F3C07"/>
</linearGradient>
<linearGradient id="paint3_linear_14920_1610" x1="8.2848" y1="7.14655" x2="9.49538" y2="10.7783" gradientUnits="userSpaceOnUse">
<stop stop-color="#FFCA59"/>
<stop offset="1" stop-color="#5F3C07"/>
</linearGradient>
<linearGradient id="paint4_linear_14920_1610" x1="9.68809" y1="1.37008" x2="7.04109" y2="6.67419" gradientUnits="userSpaceOnUse">
<stop offset="0.05" stop-color="#FFCA59"/>
<stop offset="1" stop-color="#5F3C06"/>
</linearGradient>
</defs>
</svg>
