<svg width="219" height="34" viewBox="0 0 219 34" fill="none" xmlns="http://www.w3.org/2000/svg">
<path d="M76.0448 17.2865C76.1403 17.3687 76.2288 17.4561 76.3104 17.5486H76.9507C76.9983 17.6025 77.0435 17.6582 77.0864 17.7157C77.3087 18.0134 77.4677 18.3582 77.5638 18.75C77.725 19.3471 77.7396 20.0461 77.6078 20.847C77.344 22.3323 76.6481 23.4536 75.52 24.2108C74.4066 24.968 72.9561 25.3467 71.1687 25.3467C69.4986 25.3467 68.1507 25.0117 67.1251 24.3419C66.1142 23.6575 65.4256 22.7109 65.0594 21.5023L68.8613 19.5582C69.3301 20.7232 70.2238 21.3057 71.5423 21.3057C72.5825 21.3057 73.1539 21.0363 73.2565 20.4975C73.2858 20.3227 73.2565 20.1698 73.1686 20.0388C73.0807 19.9077 72.9268 19.7912 72.7071 19.6893C72.4873 19.5874 72.2822 19.5 72.0917 19.4272C71.9013 19.3544 71.6302 19.267 71.2786 19.1651C70.9417 19.0631 70.6779 18.983 70.4875 18.9248C69.755 18.6704 69.1365 18.3633 68.6317 18.0036H67.9915C67.8616 17.9111 67.7393 17.8151 67.6245 17.7157C66.5251 16.7632 66.116 15.4916 66.3973 13.9008C66.6463 12.532 67.3203 11.4325 68.4191 10.6025C69.5179 9.77244 70.8584 9.35742 72.4407 9.35742C73.7593 9.35742 74.8874 9.66323 75.825 10.2748C76.7627 10.8864 77.4733 11.7674 77.9567 12.9178L74.2428 14.8837C73.8618 13.8935 73.1659 13.3984 72.155 13.3984C71.3932 13.3984 70.9537 13.6605 70.8365 14.1847C70.7779 14.5051 70.9097 14.7672 71.232 14.9711C71.5543 15.175 72.2136 15.4444 73.2099 15.7793C73.8399 15.9832 74.36 16.1943 74.7702 16.4127C75.1951 16.6166 75.6199 16.9079 76.0448 17.2865Z" fill="white"/>
<path d="M65.5184 9.70761L64.1322 17.5486H64.7724L63.4552 24.9979H59.9391L56.5676 18.0036H56.3402L55.1043 24.9979H50.7091L51.9458 18.0036H51.3056L52.7722 9.70761H56.2884L59.8265 17.0469L61.1231 9.70761H65.5184Z" fill="white"/>
<path d="M41.6489 17.7761L44.8344 17.3394L46.1836 9.70761H50.5789L49.1927 17.5486H49.833L48.5158 24.9979H44.1205L45.2872 18.3996L41.6489 17.7761Z" fill="white"/>
<path fill-rule="evenodd" clip-rule="evenodd" d="M215.291 16.7543C215.336 16.0053 215.271 15.2726 215.096 14.5561C214.862 13.5804 214.459 12.7067 213.888 11.9349C213.316 11.1631 212.532 10.5442 211.536 10.0782C210.54 9.5977 209.412 9.35742 208.152 9.35742C205.72 9.35742 203.669 10.1219 201.998 11.6509C200.343 13.1654 199.339 14.9784 198.988 17.0899C198.954 17.2998 198.928 17.5084 198.91 17.7157C198.902 17.812 198.895 17.908 198.891 18.0036H199.531C199.478 19.0447 199.627 20.0507 199.979 21.0217C200.448 22.2595 201.276 23.2934 202.463 24.1234C203.649 24.9389 205.078 25.3467 206.748 25.3467C209.209 25.3467 211.253 24.5749 212.879 23.0313C214.364 21.6341 215.316 19.9983 215.733 18.124L218.145 17.5486L215.291 16.7543ZM206.928 17.7761L211.134 18.4969C210.864 19.0701 210.472 19.5768 209.956 20.0169C209.121 20.7159 208.162 21.0654 207.078 21.0654C205.993 21.0654 205.158 20.7159 204.572 20.0169C204.054 19.3864 203.84 18.6192 203.929 17.7157C203.934 17.6605 203.94 17.6048 203.948 17.5486H203.308C203.317 17.4837 203.327 17.4182 203.339 17.352C203.529 16.289 204.042 15.408 204.877 14.709C205.712 13.9954 206.672 13.6387 207.756 13.6387C208.84 13.6387 209.675 13.9954 210.261 14.709C210.826 15.3822 211.03 16.2242 210.874 17.2351L206.928 17.7761Z" fill="white"/>
<path d="M193.062 24.9979L189.691 18.0036H189.463L188.227 24.9979H183.832L185.069 18.0036H184.429L185.895 9.70761H189.411L192.95 17.0469L194.246 9.70761H198.641L197.255 17.5486H197.895L196.578 24.9979H193.062Z" fill="white"/>
<path d="M183.702 9.70761L182.316 17.5486H182.956L181.639 24.9979H177.244L178.48 18.0036H177.84L179.307 9.70761H183.702Z" fill="white"/>
<path d="M169.423 18.9248C168.691 18.6704 168.072 18.3633 167.567 18.0036H166.927C166.797 17.9111 166.675 17.8151 166.56 17.7157C165.461 16.7632 165.052 15.4916 165.333 13.9008C165.582 12.532 166.256 11.4325 167.355 10.6025C168.453 9.77244 169.794 9.35742 171.376 9.35742C172.695 9.35742 173.823 9.66323 174.761 10.2748C175.698 10.8864 176.409 11.7674 176.892 12.9178L173.178 14.8837C172.797 13.8935 172.102 13.3984 171.091 13.3984C170.329 13.3984 169.889 13.6605 169.772 14.1847C169.713 14.5051 169.845 14.7672 170.168 14.9711C170.49 15.175 171.149 15.4444 172.145 15.7793C172.775 15.9832 173.296 16.1943 173.706 16.4127C174.131 16.6166 174.555 16.9079 174.98 17.2865C175.076 17.3687 175.164 17.4561 175.246 17.5486H175.886C175.934 17.6025 175.979 17.6582 176.022 17.7157C176.244 18.0134 176.403 18.3582 176.499 18.75C176.661 19.3471 176.675 20.0461 176.543 20.847C176.28 22.3323 175.584 23.4536 174.456 24.2108C173.342 24.968 171.892 25.3467 170.104 25.3467C168.434 25.3467 167.086 25.0117 166.061 24.3419C165.05 23.6575 164.361 22.7109 163.995 21.5023L167.797 19.5582C168.266 20.7232 169.159 21.3057 170.478 21.3057C171.518 21.3057 172.089 21.0363 172.192 20.4975C172.221 20.3227 172.192 20.1698 172.104 20.0388C172.016 19.9077 171.862 19.7912 171.643 19.6893C171.423 19.5874 171.218 19.5 171.027 19.4272C170.837 19.3544 170.566 19.267 170.214 19.1651C169.877 19.0631 169.613 18.983 169.423 18.9248Z" fill="white"/>
<path fill-rule="evenodd" clip-rule="evenodd" d="M160.967 9.70761L162.094 17.5486H162.735L163.805 24.9979H159.212L159.036 23.032H154.597L153.718 24.9979H148.861L152.34 18.0036H151.699L155.825 9.70761H160.967ZM158.563 18.0036H157.923L157.627 14.8407L156.411 17.5486H157.051L156.157 19.5371H158.707L158.563 18.0036Z" fill="white"/>
<path d="M134.999 16.9387L130.927 17.7761L135.478 18.556C135.454 20.2914 135.958 21.7759 136.99 23.0094C138.309 24.5676 140.162 25.3467 142.55 25.3467C144.03 25.3467 145.385 25.0263 146.616 24.3856C147.861 23.7303 148.88 22.8201 149.671 21.6552L146.023 19.3616C145.144 20.4975 144.096 21.0654 142.88 21.0654C141.825 21.0654 141.034 20.7086 140.507 19.9951C140.042 19.3539 139.851 18.594 139.932 17.7157C139.937 17.6604 139.943 17.6047 139.95 17.5486H139.31C139.318 17.4837 139.328 17.4181 139.339 17.352C139.53 16.2744 140.028 15.3861 140.834 14.6871C141.639 13.9882 142.57 13.6387 143.625 13.6387C144.928 13.6387 145.881 14.1702 146.481 15.2332L150.503 13.1144C149.199 10.6098 147.038 9.35742 144.02 9.35742C141.764 9.35742 139.779 10.0855 138.065 11.5417C136.414 12.9561 135.392 14.7551 134.999 16.9387Z" fill="white"/>
<path d="M126.748 13.9452L126.11 17.5486H126.751L125.432 24.9979H121.037L122.275 18.0036H121.635L122.353 13.9452H118.727L119.474 9.70761H131.121L130.374 13.9452H126.748Z" fill="white"/>
<path d="M112.583 24.9979L109.212 18.0036H108.984L107.748 24.9979H103.353L104.59 18.0036H103.95L105.416 9.70761H108.932L112.471 17.0469L113.767 9.70761H118.162L116.776 17.5486H117.416L116.099 24.9979H112.583Z" fill="white"/>
<path fill-rule="evenodd" clip-rule="evenodd" d="M99.6318 9.70761L100.759 17.5486H101.399L102.469 24.9979H97.8763L97.7005 23.032H93.2613L92.3823 24.9979H87.5255L91.004 18.0036H90.3637L94.4893 9.70761H99.6318ZM97.2276 18.0036H96.5874L96.2914 14.8407L95.0749 17.5486H95.7152L94.8216 19.5371H97.3709L97.2276 18.0036Z" fill="white"/>
<path d="M80.6042 24.9979L81.8421 18.0036H81.2019L81.9201 13.9452H78.294L79.0412 9.70761H90.6886L89.9414 13.9452H86.3153L85.6776 17.5486H86.3179L84.9994 24.9979H80.6042Z" fill="white"/>
<path fill-rule="evenodd" clip-rule="evenodd" d="M7.72747 31.2056C9.60463 32.4327 11.7544 33.31 14.0974 33.725C23.5456 35.3992 32.3603 29.2626 34.0556 19.8295C34.9985 14.5826 33.3103 9.4145 29.9418 5.67182L26.8743 9.74769C28.8409 12.3408 29.7469 15.7104 29.1103 19.1648C27.8994 25.7352 21.6015 30.0493 14.9626 28.858C14.1253 28.7077 13.3241 28.4755 12.5656 28.1712L7.72747 31.2056ZM18.21 32.5786L18.2564 33.1205C15.52 33.2844 12.9433 32.8195 10.4366 31.7195C10.8434 30.8642 11.2386 30.032 11.6538 29.1578L11.7368 28.9829C13.7299 29.8371 15.8053 30.2274 17.9979 30.0988C18.0688 30.9296 18.1381 31.7396 18.21 32.5786ZM30.7237 8.07182C32.1924 10.2571 33.0906 12.7054 33.3672 15.4111C32.5191 15.4808 31.6889 15.5501 30.8465 15.6197L30.3232 15.663C30.0885 13.516 29.3734 11.5546 28.2124 9.7941C29.0471 9.22145 29.8682 8.65821 30.7237 8.07182ZM31.7792 24.1159C30.5685 26.5507 28.8656 28.5332 26.6884 30.0918C26.2842 29.5219 25.8936 28.9723 25.5037 28.4229C25.3132 28.1544 25.1227 27.886 24.9306 27.6151C26.6659 26.3593 28.0287 24.7706 29.0163 22.8261C29.5964 23.0971 30.1689 23.3643 30.7472 23.6342C31.0882 23.7933 31.4313 23.9535 31.7792 24.1159Z" fill="url(#paint0_linear_250_6266)"/>
<path fill-rule="evenodd" clip-rule="evenodd" d="M4.30556 28.2574C0.9738 24.518 -0.681494 19.3745 0.263316 14.1352C1.96288 4.70991 10.7798 -1.40395 20.2484 0.278102C22.8341 0.73731 25.1864 1.76652 27.1958 3.21068L22.363 6.10071C21.421 5.65956 20.4052 5.33132 19.3298 5.13631C12.7469 3.94314 6.42357 8.26169 5.20844 14.7818C4.56614 18.2271 5.45411 21.594 7.39377 24.1921L4.30556 28.2574ZM16.0555 0.879993C16.1434 1.9043 16.2279 2.88958 16.3054 3.80099C16.65 3.83165 16.9903 3.85477 17.3267 3.87762C18.0769 3.92859 18.8079 3.97826 19.5244 4.10724C20.2411 4.23626 20.9428 4.44564 21.6546 4.65804C21.9709 4.75241 22.2891 4.84737 22.6116 4.93614C22.73 4.68674 22.8503 4.43352 22.972 4.1771C23.2652 3.55979 23.5673 2.92389 23.8736 2.27795C21.3586 1.17722 18.7823 0.710285 16.0555 0.879993ZM8.41552 5.08232C8.71468 5.52369 9.01569 5.96779 9.32426 6.42343C7.63876 7.64549 6.27962 9.23697 5.29323 11.1712C4.36443 10.7378 3.46099 10.3159 2.53162 9.88166C3.73726 7.45158 5.44122 5.47903 7.61711 3.90409C7.88446 4.29879 8.14925 4.68947 8.41552 5.08232ZM5.61523 23.4111C5.7612 23.706 5.90826 24.0032 6.05018 24.3059C5.56435 24.6357 5.05835 24.98 4.53553 25.3352C4.23323 25.5406 3.92526 25.7498 3.61222 25.9624C2.11533 23.7462 1.22604 21.2953 0.943412 18.5878C1.61069 18.5325 2.26724 18.4783 2.90269 18.4258C3.23896 18.398 3.56932 18.3707 3.89224 18.344C3.97549 18.6628 4.05149 18.9811 4.12702 19.2974C4.29909 20.018 4.46868 20.7282 4.71582 21.4105C4.9624 22.0921 5.28603 22.746 5.61523 23.4111Z" fill="url(#paint1_linear_250_6266)"/>
<path d="M22.5731 19.4584L2.30739 32.9779L13.8705 18.4237L10.3462 15.1049L30.8489 2.451L19.2862 16.3011L22.5731 19.4584Z" fill="url(#paint2_linear_250_6266)"/>
<defs>
<linearGradient id="paint0_linear_250_6266" x1="26.2588" y1="2.87448" x2="-7.87073" y2="54.8357" gradientUnits="userSpaceOnUse">
<stop offset="0.13" stop-color="#FFE601"/>
<stop offset="0.715" stop-color="#FF0B16"/>
</linearGradient>
<linearGradient id="paint1_linear_250_6266" x1="26.2588" y1="2.87448" x2="-7.87073" y2="54.8357" gradientUnits="userSpaceOnUse">
<stop offset="0.13" stop-color="#FFE601"/>
<stop offset="0.715" stop-color="#FF0B16"/>
</linearGradient>
<linearGradient id="paint2_linear_250_6266" x1="26.2588" y1="2.87448" x2="-7.87073" y2="54.8357" gradientUnits="userSpaceOnUse">
<stop offset="0.13" stop-color="#FFE601"/>
<stop offset="0.715" stop-color="#FF0B16"/>
</linearGradient>
</defs>
</svg>
